<svg width="16" height="16" viewBox="0 0 16 16" fill="none" xmlns="http://www.w3.org/2000/svg">
<path d="M1.33334 8.13599C1.33334 6.60999 1.33334 5.84733 1.68001 5.21533C2.02534 4.58266 2.65801 4.19066 3.92268 3.40533L5.25601 2.57799C6.59268 1.74799 7.26134 1.33333 8.00001 1.33333C8.73868 1.33333 9.40668 1.74799 10.744 2.57799L12.0773 3.40533C13.342 4.19066 13.9747 4.58266 14.3207 5.21533C14.6667 5.84799 14.6667 6.60999 14.6667 8.13533V9.14999C14.6667 11.75 14.6667 13.0507 13.8853 13.8587C13.104 14.6667 11.8473 14.6667 9.33334 14.6667H6.66668C4.15268 14.6667 2.89534 14.6667 2.11468 13.8587C1.33401 13.0507 1.33334 11.7507 1.33334 9.14999V8.13599Z" stroke="black" stroke-width="1.5"/>
<path d="M6 10.6667C6.56667 11.0867 7.25667 11.3333 8 11.3333C8.74333 11.3333 9.43333 11.0867 10 10.6667" stroke="black" stroke-width="1.5" stroke-linecap="round"/>
</svg>
