<svg width="16" height="16" viewBox="0 0 16 16" fill="none" xmlns="http://www.w3.org/2000/svg">
<path fill-rule="evenodd" clip-rule="evenodd" d="M1.68001 5.21533C1.33334 5.84666 1.33334 6.60999 1.33334 8.13533V9.14999C1.33334 11.75 1.33334 13.0507 2.11468 13.8587C2.89601 14.6667 4.15268 14.6667 6.66668 14.6667H9.33334C11.8473 14.6667 13.1047 14.6667 13.8853 13.8587C14.666 13.0507 14.6667 11.7507 14.6667 9.14999V8.13599C14.6667 6.60999 14.6667 5.84733 14.32 5.21533C13.9747 4.58266 13.342 4.19066 12.0773 3.40533L10.744 2.57799C9.40734 1.74799 8.73868 1.33333 8.00001 1.33333C7.26134 1.33333 6.59334 1.74799 5.25601 2.57799L3.92268 3.40533C2.65801 4.19066 2.02601 4.58266 1.68001 5.21533ZM6.29734 10.2653C6.24477 10.2244 6.18456 10.1944 6.12024 10.1771C6.05592 10.1598 5.98878 10.1555 5.92278 10.1645C5.85678 10.1735 5.79324 10.1956 5.73589 10.2295C5.67855 10.2634 5.62855 10.3084 5.58884 10.3619C5.54913 10.4153 5.5205 10.4762 5.50465 10.5409C5.48879 10.6056 5.48602 10.6728 5.4965 10.7386C5.50698 10.8044 5.5305 10.8674 5.56568 10.924C5.60085 10.9805 5.64698 11.0295 5.70134 11.068C6.36513 11.564 7.17135 11.8325 8.00001 11.8333C8.82844 11.8323 9.63441 11.5639 10.298 11.068C10.3524 11.0295 10.3985 10.9805 10.4337 10.924C10.4689 10.8674 10.4924 10.8044 10.5028 10.7386C10.5133 10.6728 10.5106 10.6056 10.4947 10.5409C10.4788 10.4762 10.4502 10.4153 10.4105 10.3619C10.3708 10.3084 10.3208 10.2634 10.2635 10.2295C10.2061 10.1956 10.1426 10.1735 10.0766 10.1645C10.0106 10.1555 9.94344 10.1598 9.87912 10.1771C9.81479 10.1944 9.75458 10.2244 9.70201 10.2653C9.21074 10.6332 8.61374 10.8324 8.00001 10.8333C7.38628 10.8324 6.78861 10.6332 6.29734 10.2653Z" fill="black"/>
</svg>
