<svg width="16" height="16" viewBox="0 0 16 16" fill="none" xmlns="http://www.w3.org/2000/svg">
<path d="M14.4422 5.2875C14.0916 4.45083 13.5816 3.69034 12.9406 3.04844C12.3015 2.40542 11.5424 1.89418 10.7062 1.54375C9.84969 1.18301 8.92939 0.998102 7.99999 0.999999H7.96874C7.02342 1.00469 6.10936 1.19219 5.24842 1.56094C4.41947 1.91497 3.66744 2.42711 3.03436 3.06875C2.39956 3.70921 1.89541 4.46703 1.54999 5.3C1.19142 6.16619 1.00973 7.09535 1.01561 8.03281C1.0203 9.11719 1.27967 10.1937 1.76405 11.1562V13.5312C1.76405 13.9281 2.08592 14.25 2.48124 14.25H4.85311C5.8201 14.738 6.88718 14.9947 7.9703 15H8.00311C8.93749 15 9.84217 14.8187 10.6953 14.4641C11.5272 14.1178 12.2835 13.6125 12.9219 12.9766C13.5656 12.3375 14.0719 11.5906 14.4265 10.7578C14.7937 9.89531 14.9812 8.97812 14.9859 8.03125C14.989 7.07969 14.8047 6.15625 14.4422 5.2875ZM4.88124 8.75C4.46874 8.75 4.1328 8.41406 4.1328 8C4.1328 7.58594 4.46874 7.25 4.88124 7.25C5.29374 7.25 5.62967 7.58594 5.62967 8C5.62967 8.41406 5.2953 8.75 4.88124 8.75ZM7.99999 8.75C7.58749 8.75 7.25155 8.41406 7.25155 8C7.25155 7.58594 7.58749 7.25 7.99999 7.25C8.41249 7.25 8.74842 7.58594 8.74842 8C8.74842 8.41406 8.41249 8.75 7.99999 8.75ZM11.1187 8.75C10.7062 8.75 10.3703 8.41406 10.3703 8C10.3703 7.58594 10.7062 7.25 11.1187 7.25C11.5312 7.25 11.8672 7.58594 11.8672 8C11.8672 8.41406 11.5312 8.75 11.1187 8.75Z" fill="black"/>
</svg>
