<?xml version="1.0" encoding="UTF-8"?>
<svg id="Layer_2" data-name="Layer 2" xmlns="http://www.w3.org/2000/svg" viewBox="0 0 16 14.78">
  <g id="Layer_1-2" data-name="Layer 1">
    <g>
      <path d="m13.56,14.78c-.75-.02-1.47-.39-1.92-1.16-1.96-3.36-3.91-6.73-5.84-10.11-.66-1.16-.25-2.53.87-3.18,1.12-.65,2.51-.3,3.18.85,1.96,3.36,3.92,6.72,5.84,10.11.89,1.57-.22,3.47-2.13,3.49Z"/>
      <path d="m1.04,9.54c1.34-2.33,2.63-4.57,3.89-6.76.82,1.44,1.61,2.88,2.45,4.29.2.33.19.57,0,.9-.74,1.24-1.45,2.5-2.19,3.78-.85-2.06-2.1-2.75-4.14-2.2Z"/>
      <path d="m2.32,14.52C1,14.51-.02,13.46,0,12.11c.02-1.29,1.07-2.32,2.36-2.32,1.3,0,2.38,1.09,2.37,2.39-.01,1.31-1.09,2.35-2.41,2.34Z"/>
    </g>
  </g>
</svg>