<?xml version="1.0" encoding="UTF-8"?>
<svg id="Layer_2" data-name="Layer 2" xmlns="http://www.w3.org/2000/svg" viewBox="0 0 16 14.67">
  <g id="Layer_1-2">
    <path stroke="black" stroke-width=".1" d="m16,11.99c-.04.17-.07.34-.12.51-.38,1.3-1.58,2.2-2.93,2.17-1.13-.03-2-.55-2.57-1.53-.77-1.32-1.52-2.64-2.28-3.96-.03-.05-.06-.09-.1-.16-.04.06-.07.11-.1.16-.76,1.32-1.52,2.64-2.28,3.96-.48.83-1.19,1.36-2.15,1.5-1.56.23-3.22-.78-3.44-2.53-.09-.69.03-1.34.37-1.94C2.08,7.27,3.75,4.36,5.43,1.47,6.23.09,7.99-.39,9.4.34c.07.04.17.04.24.07.09.04.18.09.24.17.27.35.55.7.77,1.08.89,1.49,1.76,2.98,2.63,4.48.73,1.26,1.45,2.53,2.18,3.79.25.43.46.87.52,1.38,0,.01.01.03.02.04v.66ZM5.67,3.04c-.02.25.03.52.15.77.09.19.18.39.29.57,1.02,1.78,2.04,3.55,3.06,5.33.61,1.06,1.21,2.13,1.85,3.18.87,1.44,2.95,1.49,3.9.1.54-.8.57-1.65.09-2.49-.99-1.75-2-3.49-3.01-5.23-.68-1.16-1.36-2.33-2.05-3.48-.14-.24-.31-.49-.53-.64-.57-.4-1.21-.56-1.91-.42-.97.2-1.83,1.06-1.84,2.31Zm-3.73,5.82c.92-.3,1.77-.24,2.57.22.8.46,1.27,1.17,1.46,2.1.05-.07.07-.12.1-.16.49-.84.97-1.69,1.46-2.52.07-.11.06-.19,0-.29-.64-1.1-1.28-2.2-1.92-3.31-.24-.42-.48-.84-.56-1.33,0-.01-.01-.03-.02-.06-1.03,1.79-2.05,3.55-3.09,5.35Zm1.05,5.14c1.31,0,2.35-1.06,2.35-2.39,0-1.24-1.09-2.27-2.39-2.27-1.25,0-2.28,1.04-2.28,2.33,0,1.28,1.04,2.33,2.32,2.33Z"/>
  </g>
</svg>