<?xml version="1.0" encoding="UTF-8"?>
<svg id="Layer_2" data-name="Layer 2" xmlns="http://www.w3.org/2000/svg" viewBox="0 0 36 32.67">
  <g id="Layer_1-2">
    <g>
      <path class="cls-1" fill="none" stroke="black" stroke-width="1.5" d="m18.02,32.16c-5.22,0-10.44,0-15.66,0-1.63,0-2.19-.48-1.68-2.03.54-1.65,1.3-3.34,2.37-4.68,3.12-3.9,7.42-5.76,12.29-6.42,3.78-.51,7.44,0,10.95,1.49,3.75,1.58,6.81,3.99,8.53,7.8.32.71.55,1.5.65,2.28.15,1.2-.24,1.57-1.47,1.57-3.66.01-7.32,0-10.98,0-1.67,0-3.33,0-5,0Z"/>
      <path class="cls-1" fill="none" stroke="black" stroke-width="1.5" d="m17.68,17.27c-4.68,0-8.44-3.76-8.44-8.41,0-4.63,3.79-8.37,8.48-8.36,4.66,0,8.47,3.79,8.45,8.4-.02,4.63-3.82,8.37-8.49,8.37Z"/>
    </g>
  </g>
</svg>