<?xml version="1.0" encoding="UTF-8"?>
<svg id="Layer_1" data-name="Layer 1" xmlns="http://www.w3.org/2000/svg" viewBox="0 0 328 364.36">

    <g id="Layer_1-2" >
    <g>
    <path fill="#231f20" d="M684.91,572.89l-50.65,29c8.25-25.55-7.09-32.85-7.09-32.85l-215.45-124c-6.71-3.13-21.86-11.44-30.61-28.82A58.9,58.9,0,0,1,376,401.44v-5.67c0-29.1,31.44-47.34,56.71-32.89L684.91,507.1C710.36,521.65,710.36,558.34,684.91,572.89Z" transform="translate(-376 -357.82)"/>
    <path fill="white" d="M607.72,617,524.21,664.8s12.87-25.56-24.16-45.4L394.71,558.32s-16.42-9.54-18.71-27.48V442.17c.47,1.2,1,2.41,1.56,3.63a57,57,0,0,0,24.55,25.61l193.76,112.1C618.38,597.25,607.72,617,607.72,617Z" transform="translate(-376 -357.82)"/>
    <path fill="#231f20" d="M497.74,679.94l-65,37.19c-25.27,14.44-56.71-3.8-56.71-32.9V559.45c1.89,12,6.78,24.78,18.32,32.08l97,56.87S507.25,657.65,497.74,679.94Z" transform="translate(-376 -357.82)"/>
    <path fill="#f7941d" d="M634.26,601.86,607.72,617s10.66-19.79-11.85-33.53L402.11,471.41a57,57,0,0,1-24.55-25.61c-.58-1.22-1.09-2.43-1.56-3.63V401.44a58.9,58.9,0,0,0,5.11,14.79c8.75,17.38,23.9,25.69,30.61,28.82L627.17,569S642.51,576.31,634.26,601.86Z" transform="translate(-376 -357.82)"/>
    <path fill="#f7941d" d="M524.21,664.8l-26.47,15.14c9.51-22.29-6.41-31.54-6.41-31.54l-97-56.87c-11.54-7.3-16.43-20.1-18.32-32.08V530.84c2.29,17.94,18.71,27.48,18.71,27.48L500.05,619.4C537.08,639.24,524.21,664.8,524.21,664.8Z" transform="translate(-376 -357.82)"/>

    </g>
    </g>
</svg>