<svg id="Layer_1" data-name="Layer 1" xmlns="http://www.w3.org/2000/svg"
    viewBox="0 0 479.49 371.45">
    <path fill="black" d="M403.9,538.09s-62.19,17.85-89.78,52.46c0,0-17.85-22.72,24.34-67.61,31.39-33.4,33.44-41.35,32.42-43.23,2.63,1.66,9.34,7.28,9.77,21.6,0,0,63.28-27.58,80.05-61.12C460.7,440.19,481.25,495.9,403.9,538.09Z" transform="translate(-300.26 -354.28)"/><path class="cls-1" d="M370.88,479.71a8.29,8.29,0,0,0-1.05-.58A1.11,1.11,0,0,1,370.88,479.71Z" transform="translate(-300.26 -354.28)"/><path class="cls-1" d="M765.21,567.83C742,538.09,744,496.32,744,496.32c15.62,1.68,16.35-9.62,16.35-9.62C743.51,475.41,744,452.81,744,452.81c-3.6-32.69-14.18-47.35-14.18-47.35,0-34.38,15.38-26.45,15.38-26.45,4.33,10.82-.71,47.84-.71,47.84,17.06-34.62,11.29-64.42,11.29-64.42-3.6-18.76-26.44.72-26.44.72A43.78,43.78,0,0,1,714.18,372c-4.42,1.5-13.32,4.53-22.59,1.44-6.41-2.12-8.51-5.68-17-7.42a38.21,38.21,0,0,0-8-.75,264.37,264.37,0,0,0-.27,36.93c.43,6.88,1.11,13.42,1.95,19.56a42.12,42.12,0,0,0,7.45,17,41.54,41.54,0,0,0,4.81,5.38c35.1,30.29,20.67,45.91,20.67,45.91-2.12,1.73-7.39,5.51-14.33,5.27-10-.36-19.38-8.89-22.39-21.34,10-5.56,16.08-12.12,14.75-16.29-.89-2.78-4.89-4.08-8.81-5.33a36.18,36.18,0,0,0-16.34-1.25c-6.53.08-12.31,2.42-13.5,6.05-1.53,4.66,3.94,12.95,15.43,16.06-4.3,12.42-13.46,21.24-23.89,22.33a22.91,22.91,0,0,1-11-1.65c-20.2-16.83,10.09-44,10.09-44a46.5,46.5,0,0,0,15.09-17.73A44.89,44.89,0,0,0,650,420.84a203,203,0,0,0,2.85-35.13,200.8,200.8,0,0,0-1.17-20.64,35.84,35.84,0,0,0-17,2.79c-5,2.22-5.19,3.81-9.43,5.14-6.5,2-12.42.33-20.62-2-5-1.45-8.58-2.48-13-4.92-9.59-5.28-12.8-11.32-20-11.28a14.38,14.38,0,0,0-5.45,1.17c-18.26,28.61,8.42,70.44,8.42,70.44-7.21-41.11,1.44-49.52,1.44-49.52,17.07,8.41,12.74,30.29,12.74,30.29-13.22,13.22-17.54,57.69-17.54,57.69C568.75,485.75,557,486.46,557,486.46c4.32,10.59,16.22,11.06,16.22,11.06a63.61,63.61,0,0,1-23.68,20.67c-6,2.95-11.09,4.2-20.14,5.83-23.76,4.3-38.24,4.6-54.76,6.56a304.12,304.12,0,0,0-37.72,7c-79.51,15.14-112.5,55.71-112.5,55.71-47.06,48.13-10.82,96.81-10.82,96.81,13.52,19.47,84.92,11.36,84.92,11.36-22.18-24-16.41-46-16.41-46,9,26,28.13,42.19,28.13,42.19C434,724,471.87,708.46,471.87,708.46c26.69-10.81,59.86,9,59.86,9,24.52,13.35,51.92,6.5,51.92,6.5,9-6.85,17.67-6.13,17.67-6.13,53.37,4,65.27-9.38,65.27-9.38,70.31-40.38,61.3-110,61.3-110,24.52,66.71-35.34,104.63-35.34,104.63H729C815.5,666.38,765.21,567.83,765.21,567.83Zm-74.09-128.9s2.88-7.39-3.61-8.29c0,0,4.51,6.31-1.8,7.21,0,0-10.28-4.69-2.16-13.16,0,0,7.57-4.88,13.16,4.32C696.71,429,701.75,438.75,691.12,438.93Zm-70-9.92c5.58-9.2,13.16-4.32,13.16-4.32,8.11,8.47-2.17,13.16-2.17,13.16-6.31-.9-1.8-7.21-1.8-7.21-6.49.9-3.61,8.29-3.61,8.29C616.11,438.75,621.16,429,621.16,429ZM544.23,547.77s25,.48,30.53-6.26c0,0,16.58-23.8,45.19-12.26,0,0,2.41-25.24,17.55-9.13,0,0,20.92,14.19,18.75,48.32,0,0-2.57,15.86.16,26.92,0,0-16,23.56-57.61,17.79,0,0-45.91-4.09-28.85-50.48,0,0-6.49-7.46-16.34-5.29,0,0,16.1,9.37,9.61,17.06C563.22,574.44,538.94,562.43,544.23,547.77Zm90.14,158.16s23.75-15.86,22-43.62c0,0-10.61,30.29-32.13,40.74,0,0-35.92-16.21-47.11-40,.13.78,4.84,25.85,37.49,42.88,0,0-31.73,9.74-49-10.09,0,0-12.92-13-22.14-27.76a42.07,42.07,0,0,0-9-11.58c-2.65-2.39-12.2-10.76-26.56-10.78a38.89,38.89,0,0,0-21.28,6.49,95.67,95.67,0,0,1-23.48,10.1c-11,3.06-19.22,5.37-25.39.91-5.53-4-6.7-11.23-7-14.61-.46,2.06-3,14.34,3.79,20.77,6.35,6,17.14,3.43,26.5,1.22,5.13-1.21,10.51-3.57,21.27-8.29,12.11-5.32,17.36-8.43,26.32-8.54a32.54,32.54,0,0,1,9.31,1c13.31,3.64,20,16.35,22,20.5,0,0,17.62,32.81,39.65,36.41,0,0-23.4,11.54-65.23-12.25,0,0-20.18-12.62-53,.72,0,0-42.91,10.1-50.12-22.36-1.06-5.76-2.88-20.33,5.3-33.59,6.2-10.06,15.77-15.5,23.37-19.81a90,90,0,0,1,14.55-6.59,102.61,102.61,0,0,1,22-5.27s-26-49.76-92.3-8.65c14.76-21.06,39.87-31.3,63.1-26,26.23,6,38.05,29.16,39.66,32.45,0,0,59.5,4,73.2-11.17,0,0,28.68,48.67,96.19,9.37C656.41,608.58,717.55,700.53,634.37,705.93Zm0-204.56s7.09,1.44,14.07-4.45c0,0,8.89,19.6,20.43,0,0,0,8.9,5.7,14,4.36C682.82,501.28,662.14,534.18,634.37,501.37Z" transform="translate(-300.26 -354.28)"/><path class="cls-1" d="M643.51,550.89l-14.67-13.23V528.3S638.7,518.92,643.51,550.89Z" transform="translate(-300.26 -354.28)"/><path class="cls-1" d="M591.58,572.6v4.49c-14.18,3.6-11.77-9.61-11.77-9.61h5.05C584.86,575.17,591.58,572.6,591.58,572.6Z" transform="translate(-300.26 -354.28)"/><path class="cls-1" d="M624.28,562c-2.4,15.14-12.74,10.65-12.74,10.65-3.6-3.78,1.44-8.2,1.44-8.2C616.59,573.59,624.28,562,624.28,562Z" transform="translate(-300.26 -354.28)"/><path class="cls-1" d="M619.23,587.67s-.59,15.15-19.29,7.69c0,0-9.07,6-12.92-3.85,2.43,3,6.55,2.89,8.28.9,1.4-1.62,1.35-4.67-.59-6.9a4.79,4.79,0,0,1,.12-4.36,4.58,4.58,0,0,1,5.11-1.89c1.89,0,4.27.2,4.86,1.51s-1.44,2.78-1.68,5.45a8,8,0,0,0,4.54,7.47C611.38,595.28,616.88,593.06,619.23,587.67Z" transform="translate(-300.26 -354.28)"/><path class="cls-1" d="M627.58,639.1a10.32,10.32,0,1,1-10.32-10.33A10.32,10.32,0,0,1,627.58,639.1Z" transform="translate(-300.26 -354.28)"/></svg>