<svg id="Layer_1" data-name="Layer 1" xmlns="http://www.w3.org/2000/svg"
    viewBox="0 0 398.01 245.37">
    <path fill="black" d="M464.36,640.09A25.41,25.41,0,1,1,439,614.68,25.41,25.41,0,0,1,464.36,640.09Z" transform="translate(-349.19 -467.06)"/><path class="cls-1" d="M464.36,640.09A25.41,25.41,0,1,1,439,614.68,25.41,25.41,0,0,1,464.36,640.09Z" transform="translate(-349.19 -467.06)"/><path class="cls-1" d="M464.36,640.09A25.41,25.41,0,1,1,439,614.68,25.41,25.41,0,0,1,464.36,640.09Z" transform="translate(-349.19 -467.06)"/><path class="cls-1" d="M700.28,640.09a25.41,25.41,0,1,1-25.41-25.41A25.41,25.41,0,0,1,700.28,640.09Z" transform="translate(-349.19 -467.06)"/><path class="cls-1" d="M674.87,567.76l30.38-16.38c8.54-4.62,5.7-12.1,5.7-12.1l-6.06-14.95,8.55,1.47V481.6c-21-1.06-27.06,15.31-27.06,15.31-27.41-31.68-63-29.55-63-29.55-4.26-1.08-8.48.82-10,4-1.92,4,.46,9.95,6,11.67,20.14,4.8,24.87,14.71,25.81,16.91,7.21,16.87-9.31,46.59-47.17,65.59-68.71,35.14-112.5,10.06-112.5,10.06-41.13-19.51-68.44-4.75-69.57-4.12h0a72.34,72.34,0,1,0,93.79,83.41c39.13,13.44,72,5.07,72,5.07-.35-7.22-1-37.3,20.86-59.29a68.93,68.93,0,0,1,19.9-13.87A88.17,88.17,0,0,0,605.68,619s-3.14,11.14-3.14,21.14a72.33,72.33,0,1,0,72.33-72.33ZM439,691.54a51.45,51.45,0,0,1-3.53-102.77c1.17-.08,2.34-.12,3.53-.12a51.44,51.44,0,0,1,51.39,49c0,.82.06,1.64.06,2.47A51.45,51.45,0,0,1,439,691.54Zm235.92,0a51.45,51.45,0,1,1,51.45-51.45A51.45,51.45,0,0,1,674.87,691.54Z" transform="translate(-349.19 -467.06)"/><path class="cls-1" d="M630.84,514.72s-40.23,50.91-91.85,53a119.84,119.84,0,0,1-23.18,1.42c-6.35-.23-28.91-1.56-56.24-15.81-31.26-16.3-34.59-31.69-64.51-41.2a110.35,110.35,0,0,0-22-4.57A91.44,91.44,0,0,1,397.48,520c13.33,9.54,30.71,27.54,26.52,35.33-3.54,6.59-21.62,4.18-32.64.51-21.73-7.23-33.26-25.08-37.49-32.55a63,63,0,0,1-3.74-34.71,98.46,98.46,0,0,1,20.92-2.23c26.84,0,47.06,11.23,58.82,17.91,18,10.23,16.95,14,31.07,22.28,13.31,7.77,33,15.34,61.68,15.62a164.37,164.37,0,0,0,34.28-4.94c25.8-6.57,47.2-18.78,46.35-21.05-.68-1.84-15.25,4.8-39.24,6.41-20.09,1.34-50.63-.6-52.72-10-1.59-7.08,13.62-16,17.12-18,27.57-16.12,59.68-8.79,74.13-4.4C602.54,490.15,641.17,502.26,630.84,514.72Z" transform="translate(-349.19 -467.06)"/></svg>