<svg id="Layer_1" data-name="Layer 1" xmlns="http://www.w3.org/2000/svg" viewBox="0 0 468.67 279.91"><path d="M539.86,668.65c3.77-8.88,7-17.13,10.76-25.13,6.45-13.7,15.79-25.43,26.27-36.22a154.08,154.08,0,0,1,44.85-31.53c9.21-4.36,19-7.55,28.82-10.55a218,218,0,0,1,61.3-9.31c12.61-.16,25.22.53,37.83.82a17.49,17.49,0,0,0,2.08-.31l-9.38-40.28,1.18-.48c.8,1.29,1.68,2.53,2.37,3.87q13.21,25.44,26.34,50.92a45.23,45.23,0,0,1,2.05,5.65,54.83,54.83,0,0,1-6.09.69c-8.12,0-16.23-.15-24.35-.2-1.18,0-2.36.22-4.3.41,2.75,6,5.22,11.38,7.71,16.77,6,13,12,26.09,18.18,39,1.6,3.35.28,4.17-2.57,4-2.07-.11-4.1-.9-6.18-1.16-32.69-4-65.36-6.21-98.32-2.29-19,2.27-37.81,5.53-56.21,10.83A186.89,186.89,0,0,0,580.76,652a19.67,19.67,0,0,0-12.3,16.27c-.57,4.28-2.76,7.14-6.43,8.44a47.26,47.26,0,0,1-13.3,3.08,162.51,162.51,0,0,1-22.82-.67,24.59,24.59,0,0,1-10-3.73,9.35,9.35,0,0,1-4-5.87c-1.35-10.42-7.9-16.11-17-19.53-15.35-5.79-31.19-9.68-47.32-12.79a329.93,329.93,0,0,0-81-5.52c-16.31.91-32.55,3.13-48.83,4.69a16,16,0,0,1-3.82-.59,16.33,16.33,0,0,1,.74-3.47q11.67-25.16,23.43-50.26c.66-1.43,1.17-2.93,2-5a55.1,55.1,0,0,0-5.54-.54c-8.37.08-16.75.29-25.12.34a16.18,16.18,0,0,1-3.8-.87,20.25,20.25,0,0,1,1.07-3.7q11-21.51,22.19-42.94c2.39-4.6,4.92-9.11,7.39-13.67l1.36.49-9.46,40.49,11.44-.67c35.69-2,70.61,1.6,104.36,14.06,36.19,13.36,64.48,36.09,83.09,70.14,4.11,7.53,7.12,15.67,10.63,23.54C538.38,665.21,539,666.67,539.86,668.65Zm200.38-54.42a32.82,32.82,0,0,0-.2-3.94c-1.74-9.71-3.65-19.38-5.25-29.11-.52-3.18-1.95-4.09-5-3.9a287,287,0,0,0-78.65,15.92,261.86,261.86,0,0,0-57.47,28.7c-2.94,2-5.74,4.11-8.61,6.18C635.37,608.81,687.33,609.85,740.24,614.23Zm-400.59-.16c52.51-3.91,104.06-5.47,154.21,14.52-.5-1.17-.53-1.46-.7-1.59-1-.76-2-1.5-3-2.22a242.5,242.5,0,0,0-46.37-25.65,273,273,0,0,0-92.92-21.67c-4.6-.24-5,.24-5.71,4.71-1.29,7.88-2.82,15.71-4.21,23.57C340.45,608.48,340.08,611.24,339.65,614.07Z" transform="translate(-305.67 -400.05)"/><path d="M540.74,647.27c-1.19-6-2.45-11.91-3.57-17.88-3.43-18.27-6.14-36.7-10.4-54.77a515,515,0,0,0-15.49-53.94c-6.08-17.13-13.91-33.65-21.4-50.25-8.5-18.86-19.68-36.17-31.88-52.83-2.65-3.62-5.65-7-8.47-10.48a33.06,33.06,0,0,1-3.14-4.18c-.41-.71-.15-1.8-.19-2.71.89.16,2,0,2.63.52,4.17,3,8.3,6,12.33,9.14,22.1,17.27,41.6,37.12,57.27,60.39,7.22,10.72,12.84,22.52,19.2,33.82.7,1.25,1.45,2.46,2.44,4.15,18.91-42.48,48-75.71,84.64-102.69,2.74-2,5.74-3.68,8.62-5.51l.9.84a17.7,17.7,0,0,1-1.7,3.23,344.78,344.78,0,0,0-39.39,59.58,412.52,412.52,0,0,0-27.67,65.45c-4.18,13.08-8.2,26.25-11.26,39.62-4.35,19-8,38.2-11.47,57.38-1.28,7-1.41,14.16-2.06,21.24Z" transform="translate(-305.67 -400.05)"/><path d="M540.68,647.39c3.5-13.41,6.66-26.92,10.63-40.18a268.69,268.69,0,0,1,9.78-25.9,276.19,276.19,0,0,1,41.32-69.24,466.44,466.44,0,0,1,31.74-34.37c17.07-17,36.79-30.57,57.84-42.22,2.29-1.27,4.68-2.37,7-3.51a2.19,2.19,0,0,1,1.69,0c-31.46,23.9-54.41,54.71-73.42,89,42.76-21.61,88.23-33.36,135.21-39.94l.55.86c-.94.62-1.81,1.57-2.84,1.81a330.16,330.16,0,0,0-85.74,33,324.5,324.5,0,0,0-70.61,52.74,313,313,0,0,0-47.66,59.48c-4.48,7.34-8.39,15-12.57,22.55-.59,1.07-1.23,2.11-1.85,3.17l-1-.08v-7.27Z" transform="translate(-305.67 -400.05)"/><path d="M539.69,656.67c-47.5-91.1-121.48-148.34-221.11-173.73,5.66-2.3,40.87,4.53,68.33,12.67a430.39,430.39,0,0,1,64.91,25.09c-8.47-17.37-19.22-33.09-31.18-48a254.77,254.77,0,0,0-40.3-40.24c44.92,22.25,80.65,54.9,109,95.89C516.27,567.13,532.28,610.19,539.69,656.67Z" transform="translate(-305.67 -400.05)"/><path d="M519.49,449.13a20.42,20.42,0,0,1,20.7-20.57c12.92.2,20.24,9.64,20.53,21.18.29,11.14-10.14,21.08-21.15,21C528.83,470.59,519.44,460.5,519.49,449.13Z" transform="translate(-305.67 -400.05)"/><path d="M410.18,474.47c-.14,10-6.86,17-16.18,16.83-10.42-.22-17-7.19-16.85-17.8.13-8,8-15,16.6-14.92C402.86,458.67,410.29,465.86,410.18,474.47Z" transform="translate(-305.67 -400.05)"/><path d="M686.14,491.3c-9.7,0-16.31-6.95-16.29-17.08,0-8.51,7.77-15.56,16.74-15.73s16.76,9,16.35,16.14C702.38,484.6,696.06,491.31,686.14,491.3Z" transform="translate(-305.67 -400.05)"/><path d="M732.15,546.4a50.66,50.66,0,0,1-5.59.75,349.7,349.7,0,0,0-63.13,7.29c-14.43,3.06-28.47,7.41-41.69,14.1a1.24,1.24,0,0,1-1.19-.21c10.79-9.58,24-14.69,37.47-18.69a163.64,163.64,0,0,1,74-4.77Z" transform="translate(-305.67 -400.05)"/><path d="M348.1,544.65c17.16-2.23,34.38-2.94,51.59.07,21,3.67,41.21,9.48,58.46,22.93-17.5-7.15-35.34-13.1-54.14-15.43-18.6-2.31-37.25-4.24-55.87-6.33Z" transform="translate(-305.67 -400.05)"/><path d="M727.78,609.17a260.82,260.82,0,0,0-74.41.5l-.34-1.91c1.46-.69,2.85-1.72,4.39-2,14.76-2.78,29.6-5.25,44.66-3.49,7.79.91,15.46,2.73,23.18,4.19a6.67,6.67,0,0,1,2,1C727.38,607.54,727.38,607.89,727.78,609.17Z" transform="translate(-305.67 -400.05)"/><path d="M427,608.88c-25-2.3-49.93-3.66-74.89,0C360.28,599.89,417.28,599.84,427,608.88Z" transform="translate(-305.67 -400.05)"/></svg>