<svg id="Layer_1" data-name="Layer 1" xmlns="http://www.w3.org/2000/svg"
    viewBox="0 0 198.82 323.33">
    <path fill="black" d="M620.05,378.33H460a19.36,19.36,0,0,0-19.36,19.36v80.4H577.23l4.28-5.81,16.14-21.81a6.72,6.72,0,0,1,10.79,8l-14.51,19.62h26a6.72,6.72,0,0,1,0,13.43H595.75l12.69,17.16a6.71,6.71,0,0,1-10.79,8l-16.14-21.81L579,491.52H440.59V682.31A19.36,19.36,0,0,0,460,701.67h160.1a19.36,19.36,0,0,0,19.36-19.36V397.69A19.36,19.36,0,0,0,620.05,378.33ZM470.59,451a7.94,7.94,0,1,1-15.87,0V402.49a7.94,7.94,0,1,1,15.87,0Zm0,144.75a7.94,7.94,0,1,1-15.87,0V518.81a7.94,7.94,0,0,1,15.87,0Z" transform="translate(-440.59 -378.33)"/></svg>