<svg id="Layer_1" data-name="Layer 1" xmlns="http://www.w3.org/2000/svg"
    viewBox="0 0 349.73 454.55">
    <path fill="black" d="M582.16,403.67a6.46,6.46,0,0,1-.61-.84A10,10,0,0,1,582.16,403.67Z" transform="translate(-365.14 -312.73)"/><path class="cls-1" d="M404,695.59c17.35,3.7,30.72,20.77,30.72,20.77-55.18-7.4-44.94-33.29-44.94-33.29,44.59-6.77,89.18-40.14,89.88-40.66C456.86,671.7,404,695.59,404,695.59Z" transform="translate(-365.14 -312.73)"/><path class="cls-1" d="M536.22,595.2c-9.68,21.38-32.41,136.23-32.41,136.23-9.4-13.37-51.49-10-51.49-10C454.86,707.92,535,596.93,536.22,595.2Z" transform="translate(-365.14 -312.73)"/><path class="cls-1" d="M598,729.72c-14.78-15.36-49.77-3.7-49.77-3.7-16.78-33.27-.85-96.71,4.83-103s15.61-45.66,15.92-46.9c-4.43,36.6,1.52,61.37,8.26,77.63,3.59,8.66,10.49,22.34,15.64,43.8A208.17,208.17,0,0,1,598,729.72Z" transform="translate(-365.14 -312.73)"/><path class="cls-1" d="M569.33,767.27H502.09s19.91-8,19.63-33.85c0,0,11.66-9.67,26.46-7.4C548.18,726,544.69,754.75,569.33,767.27Z" transform="translate(-365.14 -312.73)"/><path class="cls-1" d="M661.38,716.36c-6-4-47.21,16.21-47.21,16.21C615.88,702.41,598,677.1,598,677.1c-28.44-43-25-78.51-25-78.51.57,24.18,44.17,70,44.17,70C650.73,687,661.38,716.36,661.38,716.36Z" transform="translate(-365.14 -312.73)"/><path class="cls-1" d="M695.16,651.75c-5.26-2.59-19-9.85-33.49-25.28-11.09-11.79-17.69-24.33-30.43-48.93-14.35-27.69-15.43-34-26.19-52.9a322.24,322.24,0,0,0-27-40.1c.24.69,11.27,31.9,2,62a66.65,66.65,0,0,0,.36,42.51c3.32,9.41,10,16.94,19,28,5.71,7,10.86,12.52,14.5,16.22,10.19,8.77,17.72,14.8,22.57,18.58,1.57,1.23,3.11,2.42,5.12,3.86a159.16,159.16,0,0,0,17,10.55c9.85,5.44,19.25,9.87,26.45,13.09l29.87-20.2A110.36,110.36,0,0,1,695.16,651.75ZM598,571.57a5.26,5.26,0,1,1,5.27-5.26A5.27,5.27,0,0,1,598,571.57Zm21.63,46.08a8,8,0,1,1,8-8A8,8,0,0,1,619.58,617.65Z" transform="translate(-365.14 -312.73)"/><path class="cls-1" d="M582.16,403.67a6.46,6.46,0,0,1-.61-.84A10,10,0,0,1,582.16,403.67Z" transform="translate(-365.14 -312.73)"/><path class="cls-1" d="M545.8,325.81c-2.67,0-4.83-2.93-4.83-6.55s2.16-6.53,4.83-6.53,4.84,2.92,4.84,6.53S548.48,325.81,545.8,325.81Z" transform="translate(-365.14 -312.73)"/><path class="cls-1" d="M588.29,365.13a2.64,2.64,0,0,0-1.66.6h0c-35.49-8.49-28.5-28.54-28.5-28.54l-10.8-3.7v-7.68H544.2v7.11l-8.82,5.4c-1.66,19.78-24.35,28.25-32.12,30.58a2.61,2.61,0,1,0-2.59,3,2.56,2.56,0,0,0,1.54-.5c8.37,11.09,8,35.63,8,35.63a14,14,0,0,0-2.08,6.43c-.57,9.61,12.76,18.76,12.76,18.76s1.54,2.84,3.19,6.77a50.47,50.47,0,0,1,3.84,13.24c.52,5.19-.5,12.91-8.31,23.08,0,0-49.49,61.43-58.88,102.82,0,0-39.25,82.78-95.57,85.34l17.06,16.64S487.59,653.21,514,603.29c0,0,6-11.1,17.93-11.95,0,0,29.44-32,6.82-78.07.26.36,8.36,12.14,9.77,25.11a31.39,31.39,0,0,0,13-5.23c14.44-10.21,16.65-31.48,13.11-43.78-.48-1.68-1.27-3.88-1.89-5.59a154.69,154.69,0,0,0-8.35-19.16s-7.11-19.34,15.08-39.82c5.68-6.29,6.62-15,2.7-21.11v0a6.46,6.46,0,0,1-.61-.84c-4.3-5.67-11.54-6.17-12-6.19-5.7-.3-9.74,2.64-12.76,4.83a31.73,31.73,0,0,0-10.93,14.93s-19-28.16-33.06-12.79a24.22,24.22,0,0,0-1.67,2c5-9.58-5.3-36-5.3-36,23.33-2.56,31.58-26.17,31.58-26.17,8.53,6,16.78,0,16.78,0,4,18.78,30.4,24.75,30.4,24.75-9.52,21.12-4.82,31.71-3,34.64a10,10,0,0,1,.61.84c-5.38-11.48,1.44-26.53,5.27-33.46a2.47,2.47,0,0,0,.86.15,2.62,2.62,0,1,0,0-5.23ZM469.67,630.59a4.48,4.48,0,1,1,4.47-4.48A4.49,4.49,0,0,1,469.67,630.59Zm14.51-56a5.63,5.63,0,1,1,5.63-5.63A5.63,5.63,0,0,1,484.18,574.64Zm32.14-8.33a5.27,5.27,0,1,1,5.26-5.26A5.26,5.26,0,0,1,516.32,566.31Zm22.47-28a8,8,0,1,1-8-8A8,8,0,0,1,538.79,538.35Z" transform="translate(-365.14 -312.73)"/></svg>