<svg id="Layer_1" data-name="Layer 1" xmlns="http://www.w3.org/2000/svg"
    viewBox="0 0 371.76 345.91">
    <defs><style>.cls-1{fill:#000;}.cls-2,.cls-3{fill:none;}.cls-2{stroke:#be1e2d;stroke-miterlimit:10;}</style></defs>
    <path class="cls-1" d="M725.88,530.45V475.32L540,367h0l-.32.19V530.65H540v-.2h10.1L569,570.26H540v.2h-.33v4.35a1.73,1.73,0,0,1,.32-.2h0v-.21l.31.2c3.14,2,28.64,19.59,13.1,39H540v.21h-.33v3.47H540v-.21h67.86a13.73,13.73,0,0,1-13.74,13.74H572L593.31,713h13V661.59a4.28,4.28,0,0,1,4.28-4.28h64.14c2-27.92,6.36-47.35,11-60.72,3.8-10.83,10.4-19.53,16.11-27.49,2.69-3.43,7.41-3.41,9.48-1.11,1.63,1.82,1.72,5.14-.23,7.72-29.53,27.61-27.53,110.48-26,137.25h40.78V537.15H635.5v-6.7Zm-34.79-42.4c1.75-6.6,4.12-11.69,5.32-11.37s.71,5.91-1,12.5-4.12,11.69-5.3,11.38S689.35,494.64,691.09,488.05Zm-7.37-17.72c1.5,0,2.71,6.77,2.71,15.12s-1.21,15.12-2.71,15.12-2.7-6.77-2.7-15.12S682.24,470.33,683.72,470.33ZM671,476.68c1.18-.32,3.55,4.77,5.3,11.37s2.21,12.19,1,12.51-3.56-4.78-5.32-11.38S669.84,477,671,476.68Zm28.53,27.52-4.08,22.95H672.64l-5.08-22.95ZM575.1,491H543.33V459.23H575.1Zm0-36.48H543.33V422.75H575.1ZM617.71,713h57V692.07h-57Z" transform="translate(-354.12 -367.04)"/>
    <path class="cls-1" d="M540,367.05h0L354.12,475.32v55.13H444.5v6.7H354.12V713H394.9c1.49-26.77,3.49-109.64-26-137.25-1.95-2.58-1.86-5.9-.23-7.72,2.07-2.3,6.79-2.32,9.48,1.11,5.71,8,12.31,16.66,16.11,27.49,4.68,13.37,9.06,32.8,11,60.72H469.4a4.28,4.28,0,0,1,4.28,4.28V713h13L508,630.83h-22.1a13.73,13.73,0,0,1-13.74-13.74H540v.21h.33v-3.47H540v-.21H526.58c-15.54-19.44,10-37,13.1-39l.31-.2v.21h0a1.73,1.73,0,0,1,.32.2v-4.35H540v-.2H511l18.86-39.81H540v.2h.33V367.24Zm-136.33,121c1.75-6.6,4.12-11.69,5.3-11.37s.72,5.91-1,12.5-4.13,11.69-5.32,11.38S401.92,494.64,403.67,488.05Zm-7.39-17.72c1.48,0,2.7,6.77,2.7,15.12s-1.22,15.12-2.7,15.12-2.71-6.77-2.71-15.12S394.78,470.33,396.28,470.33Zm-12.69,6.35c1.2-.32,3.57,4.77,5.32,11.37s2.22,12.19,1,12.51-3.55-4.78-5.3-11.38S382.43,477,383.59,476.68Zm23.77,50.47H384.52l-4.08-22.95h32ZM536.67,491H504.9V459.23h31.77Zm0-36.48H504.9V422.75h31.77ZM405.26,713h57V692.07h-57Z" transform="translate(-354.12 -367.04)"/><path class="cls-2" d="M405,654.53" transform="translate(-354.12 -367.04)"/><rect class="cls-3" x="281.06" y="160.42" width="90.37" height="6.7"/><path class="cls-3" d="M617.39,682.79V683h57v-.21Z" transform="translate(-354.12 -367.04)"/><path class="cls-2" d="M674.4,654.33" transform="translate(-354.12 -367.04)"/><polygon class="cls-3" points="345.11 134.17 341.03 157.12 318.18 157.12 313.11 134.17 345.11 134.17"/><path class="cls-3" d="M686.09,482.47c0,8.35-1.2,15.12-2.7,15.12s-2.7-6.77-2.7-15.12,1.22-15.12,2.7-15.12S686.09,474.12,686.09,482.47Z" transform="translate(-354.12 -367.04)"/><path class="cls-3" d="M695,486.2c-1.75,6.59-4.13,11.68-5.3,11.37s-.72-5.91,1-12.51,4.13-11.68,5.31-11.37S696.78,479.61,695,486.2Z" transform="translate(-354.12 -367.04)"/><path class="cls-3" d="M677,497.57c-1.19.31-3.56-4.78-5.32-11.37s-2.21-12.2-1-12.51,3.56,4.78,5.31,11.37S678.21,497.26,677,497.57Z" transform="translate(-354.12 -367.04)"/><polygon class="cls-1" points="225.37 345.91 189.21 345.91 189.21 263.99 204.14 263.99 225.37 345.91"/><polygon class="cls-1" points="182.55 263.99 182.55 345.91 146.39 345.91 167.62 263.99 182.55 263.99"/><rect class="cls-1" x="263.27" y="302.22" width="57.02" height="13.53"/><rect class="cls-1" x="51.8" y="302.22" width="57.02" height="13.53"/></svg>