<svg id="Layer_1" data-name="Layer 1" xmlns="http://www.w3.org/2000/svg"
    viewBox="0 0 175.24 326.57"><defs><style>.cls-1{fill:#000;}</style></defs><path class="cls-1" d="M561.12,408.65a31.94,31.94,0,1,1-31.94-31.94A31.94,31.94,0,0,1,561.12,408.65Z" transform="translate(-452.38 -376.71)"/><path class="cls-1" d="M515,694.34c-2.17,1.61-12.11,8.72-25.74,8.72a39.55,39.55,0,0,1-6.72-.58c-3.37-.58-19.5-3.39-26.8-17.77a32.69,32.69,0,0,1-2.95-19.38,41.05,41.05,0,0,1,7.39-11.18c4.45-4.75,7.17-5.23,10.48-10.11a29.8,29.8,0,0,0,4.3-10.17c1.59-6.62.27-10.25,2.47-16.3a26.51,26.51,0,0,1,4.54-7.88,4.6,4.6,0,0,1,6.9-.19l18.84,20a4.85,4.85,0,0,1,.65,5.81l-15,25.41a7.06,7.06,0,0,0,1.58,9l19.64,16.31A5.62,5.62,0,0,1,515,694.34Z" transform="translate(-452.38 -376.71)"/><path class="cls-1" d="M621.16,660.4s-9.1-4.83-24.17,4c0,0-5.4,3.1-11.36-8.83,0,0-15.36-38.65-36.12-68.51l6-67.95s22.18,41.52,46.92,41.52c0,0,13.65-1.43,6.54-16.78,0,0-43.79-53.74-44.36-62.84,0,0-10.67-25-26.8-28.72,0,0-1.63,10.81,2.06,17.07,0,0,17.92,44.07,2.57,58.57a26,26,0,0,1-8.82-19.34s7.67-49.47-14.5-58.86c0,0-97.53,31.28-36.11,137.9h6.83s-2.28,5.41,16.48,25.31l45.21,46.34s10.53,9.39,14.79,29.86c0,0,4.55,15.66,18.76,13.94,0,0,6.54,1.42,14.79-2.85l25.59-17.35S632.54,665,621.16,660.4ZM530.4,575.51l-28.94,2.18a3.51,3.51,0,0,1-3.74-3.15l-4-42.73a10.12,10.12,0,0,1,10.08-11.07h23.68a5.87,5.87,0,0,1,5.86,5.56l2.27,43.33A5.6,5.6,0,0,1,530.4,575.51Z" transform="translate(-452.38 -376.71)"/></svg>