<svg id="Layer_1" data-name="Layer 1" xmlns="http://www.w3.org/2000/svg"
    viewBox="0 0 428.46 432.17">
    <path fill="none" d="M665.62,472.81c0-1.58.5-4,1.54-4.57C665.35,469.15,665.62,472.81,665.62,472.81Zm31.78,107.4c12.63-6.13,25.17-12.44,37.9-18.37a10.57,10.57,0,0,0,2-1.21Z" transform="translate(-325.77 -323.92)"/>
    <path fill="none" d="M450.66,748.15c-.17.32-.34.65-.51,1a15.3,15.3,0,0,0,1.8-4A1.55,1.55,0,0,0,452,745,20.16,20.16,0,0,1,450.66,748.15ZM341,698.18c1.56.19,3.13.46,4.66.79l-.72-.2A14.93,14.93,0,0,0,341,698.18Z" transform="translate(-325.77 -323.92)"/>
    <path fill="black" d="M739.61,459.8c0-20.73,0-41.46.08-62.19,0-3.36-1-4.51-4.48-4.46-13,.16-25.91.13-38.86,0-3.47,0-4.92,1-4.82,4.68.19,7.37,0,14.73.06,22.09,0,2.52-.86,3.83-3.55,3.78q-9.6-.17-19.22-.16c-2.75,0-3.94-1.16-3.86-4,.11-3.68,0-7.36-.05-11.05,0-2.36-.83-3.75-3.63-3.73q-25.77.13-51.55,0c-2.68,0-3.71,1.12-3.69,3.63,0,3.54-.21,7.1,0,10.64s-1.23,4.55-4.52,4.53c-14.73-.1-29.46-.13-44.18,0-3.34,0-4.26-1.31-4.19-4.37.12-5.72-.06-11.45,0-17.18,0-2.8-1.11-3.85-3.93-3.83q-20,.15-40.09,0c-3,0-4.14,1.15-4.07,4.13.13,5.72,0,11.45.07,17.18.05,2.72-1,4.06-3.78,4.05-12.55,0-25.09-.05-37.63,0-2.65,0-3.67-1.09-3.61-3.68.08-4.22-.15-8.46,0-12.68.15-3.57-1.31-4.75-4.82-4.72-16.1.13-32.19.05-48.28.08-5.26,0-5.54.31-5.54,5.58q0,37.85,0,75.68,0,45.2,0,90.41c0,2.79.38,4.78,3.79,5a2.56,2.56,0,0,1,1.78.6h3.28l-18.21,39.91h0l-1.59,3.87c-6,14.5-12.24,28.86-18.17,43.36a7.42,7.42,0,0,1-5.51,4.79c-6.45,1.71-13,3.24-19.25,5.51-7.71,2.82-12.18,8.88-14.21,16.74-.51,2-.63,3.61,2.49,3.74,1.7.08,3.42.23,5.13.44a14.93,14.93,0,0,1,3.94.59l.72.2c.74.16,1.47.33,2.2.52,10.4,2.73,20.71,5.89,31.11,8.65a11.54,11.54,0,0,0,6.33-.13c11.27-3.88,18.61-12,23.16-22.74q17.31-40.85,34.47-81.74a14.26,14.26,0,0,1,10.4-8.88c7.4-1.84,14.75-3.94,22.17-5.69a26,26,0,0,1,8.44-.78c11.25,1.13,22.47,2.55,33.7,3.91,4.4.54,8.8,1.19,13.59,1.85-.56,1.53-.87,2.54-1.27,3.5-5.79,13.67-11.63,27.32-17.38,41-7.85,18.72-15.72,37.44-23.35,56.25-1.66,4.09-4.55,5.72-8.44,6.71-7,1.78-14,3.54-20.89,5.75s-11.61,6.94-14.72,13.35c-1.61,3.33-1.35,5.93,1.91,8.53A13.92,13.92,0,0,1,452,745a1.55,1.55,0,0,1-.06.23,15.3,15.3,0,0,1-1.8,4h0c-.32.67-.69,1.47-1.22,2.6a50.52,50.52,0,0,0,5.31-.86c13.91-3.9,27.85-7.74,41.7-11.85,12.78-3.78,22.64-11.39,28.18-23.7,6.87-15.31,13.51-30.72,20.12-46.13l.39-.91c.56-1.29,1.11-2.59,1.66-3.88q9.81-22.92,19.31-46a13.5,13.5,0,0,1,2.31-4h0a8.21,8.21,0,0,1,5.11-2.68c2.93-.47,5.75-1.63,8.64-2.41,13.23-3.52,26.24-8.76,40.35-4.9.26.07.55,0,.81.09,13.43,3.24,25.78.81,37.64-6.21,3.74-2.21,5.17-4.41,5.14-8.59-.17-18.13-.07-36.27-.06-54.41,0-20.87,0-41.73.08-62.59,0,0-.27-3.66,1.54-4.57,7.5-3.79,15.19-7.18,23.68-11.1.12,2.51.26,4,.26,5.45q0,56.87,0,113.73c0,6,.87,6.55,6.33,3.89l39.93-19.58c1.79-1.39,2.39-3.15,2.38-5.92C739.56,523.07,739.61,491.43,739.61,459.8ZM545.55,488.12c-1.2.5-2.36,1.07-3.58,1.49a39.24,39.24,0,0,0-26.61,37c0,16.75,0,33.52,0,50.28,0,4.83-.33,5.13-5.19,4.58-6.23-.7-12.44-1.57-18.67-2.23-2.18-.23-3.09-1.16-3.08-3.38.06-19.21-.53-38.45.26-57.63.93-22.27,22.47-38.77,44.48-35,4.19.72,8.27,2,12.41,3.09C545.56,486.94,545.56,487.53,545.55,488.12Zm54.9,74.34c-6.9,1.36-13.68,3.3-21.08,5.13-.11-2.17-.23-3.74-.26-5.32-.3-14.43.19-28.94-1.05-43.29-1.93-22.09-21.17-41.14-43-44.86-23.67-4-43.06,7.67-50.9,24.68-2.87,6.25-4.05,13.53-4.79,20.46-.81,7.56-.26,15.26-.18,22.9,0,2.89-.85,4.51-4,5a72.92,72.92,0,0,0-9.92,2.45c-3.38,1-4.57.07-4.53-3.61.14-17.86.05-35.72.05-53.58,0-8.32,0-16.65,0-25,0-4.69.63-5.25,5.17-4.88,19.84,1.59,39.67,3.24,59.51,4.82Q561.5,470.2,597.6,473c.4,0,.81,0,1.21.08,6.58.64,6.59.64,6.59,7.36,0,25.09-.06,50.18.07,75.27C605.48,559.49,604.59,561.64,600.45,562.46Z" transform="translate(-325.77 -323.92)"/>
    <path fill="white" d="M545.57,486.35c0,.59,0,1.18,0,1.77-1.2.5-2.36,1.07-3.58,1.49a39.24,39.24,0,0,0-26.61,37c0,16.75,0,33.52,0,50.28,0,4.83-.33,5.13-5.19,4.58-6.23-.7-12.44-1.57-18.67-2.23-2.18-.23-3.09-1.16-3.08-3.38.06-19.21-.53-38.45.26-57.63.93-22.27,22.47-38.77,44.48-35C537.35,484,541.43,485.3,545.57,486.35Z" transform="translate(-325.77 -323.92)"/>
    <path fill="white" d="M605.47,555.66c0,3.83-.88,6-5,6.8-6.9,1.36-13.68,3.3-21.08,5.13-.11-2.17-.23-3.74-.26-5.32-.3-14.43.19-28.94-1.05-43.29-1.93-22.09-21.17-41.14-43-44.86-23.67-4-43.06,7.67-50.9,24.68-2.87,6.25-4.05,13.53-4.79,20.46-.81,7.56-.26,15.26-.18,22.9,0,2.89-.85,4.51-4,5a72.92,72.92,0,0,0-9.92,2.45c-3.38,1-4.57.07-4.53-3.61.14-17.86.05-35.72.05-53.58,0-8.32,0-16.65,0-25,0-4.69.63-5.25,5.17-4.88,19.84,1.59,39.67,3.24,59.51,4.82Q561.5,470.2,597.6,473c.4,0,.81,0,1.21.08,6.58.64,6.59.64,6.59,7.36C605.4,505.48,605.34,530.57,605.47,555.66Z" transform="translate(-325.77 -323.92)"/>
    <path fill="black" d="M636.38,372.07H615.56c-2.19,0-3.92-.51-3.14-3.3,3.08-11,6-22,9.36-32.92,2.08-6.64,7.58-9.53,14.19-9.65s11.69,2.81,14.25,9a126.58,126.58,0,0,1,4.18,13.16c1.77,6.15,3.42,12.32,5.08,18.49,1.26,4.71.82,5.27-3.93,5.28H636.38Z" transform="translate(-325.77 -323.92)"/>
    <path fill="black" d="M431.26,369.55c-6.68,0-13.36-.07-20,0-3.06.05-3.93-1.24-3.14-4,2.94-10.48,5.71-21,8.87-31.44,1.86-6.13,7.83-10.05,14.42-10.18a15.08,15.08,0,0,1,15,10.45c2.32,7,4.06,14.12,6.05,21.2.77,2.75,1.54,5.51,2.29,8.27,1.41,5.25,1,5.76-4.25,5.77H431.26Z" transform="translate(-325.77 -323.92)"/>
    <path fill="black" d="M529.83,370.53c-5.58,0-11.17,0-16.75,0-2.91,0-4-1-3.11-4,2.47-8.63,4.67-17.34,7.2-26,1.54-5.26,6.67-8.64,12.52-8.75a12.93,12.93,0,0,1,12.87,8.87c2.76,8.82,5.12,17.77,7.67,26.67.74,2.59-.75,3.1-2.83,3.1H529.83Z" transform="translate(-325.77 -323.92)"/>
    <path fill="black" d="M715.44,365.69c-5.58,0-11.15-.06-16.73,0-3.23.05-4.09-1.37-3.25-4.34,2.33-8.24,4.42-16.55,6.92-24.74,2-6.44,6.41-9.66,12.54-9.75,6.52-.1,10.9,2.82,13,9.52,2.67,8.42,4.9,17,7.28,25.48.73,2.59-.28,3.86-3,3.84C726.6,365.65,721,365.69,715.44,365.69Z" transform="translate(-325.77 -323.92)"/>
    <path fill="white" d="M605.47,555.66c0,3.83-.88,6-5,6.8-6.9,1.36-13.68,3.3-21.08,5.13-.11-2.17-.23-3.74-.26-5.32-.3-14.43.19-28.94-1.05-43.29-1.93-22.09-21.17-41.14-43-44.86-23.67-4-43.06,7.67-50.9,24.68-2.87,6.25-4.05,13.53-4.79,20.46-.81,7.56-.26,15.26-.18,22.9,0,2.89-.85,4.51-4,5a72.92,72.92,0,0,0-9.92,2.45c-3.38,1-4.57.07-4.53-3.61.14-17.86.05-35.72.05-53.58,0-8.32,0-16.65,0-25,0-4.69.63-5.25,5.17-4.88,19.84,1.59,39.67,3.24,59.51,4.82Q561.5,470.2,597.6,473c.4,0,.81,0,1.21.08,6.58.64,6.59.64,6.59,7.36C605.4,505.48,605.34,530.57,605.47,555.66Z" transform="translate(-325.77 -323.92)"/>
    <rect fill="white" x="65.49" y="45.69" width="79.85" height="32.53" rx="12.01"/>
    <rect fill="white" x="354.71" y="41.79" width="73.75" height="27.55" rx="10.62"/>
    <rect fill="white" x="168.39" y="46.94" width="73.75" height="27.42" rx="10.59"/>
    <rect fill="white" x="270.24" y="48.21" width="80.58" height="32.83" rx="12.12"/>
    <path fill="white" d="M748.46,563.09v54.66l-108.07,75-96.16-23.56.39-.91,23.28-53.81h0a8.21,8.21,0,0,1,5.11-2.68c2.93-.47,5.75-1.63,8.64-2.41,13.23-3.52,26.24-8.76,40.35-4.9.26.07.55,0,.81.09,13.43,3.24,25.78.81,37.64-6.21,3.74-2.21,5.17-4.41,5.14-8.59l0-117c0-1.58.5-4,1.54-4.57l23.68-11.1.23,119.18s-1.55,9.59,6.33,3.89c12.63-6.13,25.17-12.44,37.9-18.37a10.57,10.57,0,0,0,2-1.21l3.79-1.86A4.94,4.94,0,0,1,748.46,563.09Z" transform="translate(-325.77 -323.92)"/>
    <path fill="white" d="M410.36,579.83l-18.21,39.91V586.33a6.5,6.5,0,0,1,6.5-6.5Z" transform="translate(-325.77 -323.92)"/>
    <path fill="white" d="M531.27,593.94c-.56,1.53-.87,2.54-1.27,3.5-5.79,13.67-11.63,27.32-17.38,41-7.85,18.72-15.72,37.44-23.35,56.25-1.66,4.09-4.55,5.72-8.44,6.71-7,1.78-14,3.54-20.89,5.75s-11.61,6.94-14.72,13.35c-1.61,3.33-1.35,5.93,1.91,8.53A13.92,13.92,0,0,1,452,745a20.16,20.16,0,0,1-1.35,3.19c-.17.32-.34.65-.51,1h0a15.08,15.08,0,0,1-16.81,6.32l-96.67-27.81a15,15,0,0,1,4.15-29.51H341c1.56.19,3.13.46,4.66.79.74.16,1.47.33,2.2.52,10.4,2.73,20.71,5.89,31.11,8.65a11.54,11.54,0,0,0,6.33-.13c11.27-3.88,18.61-12,23.16-22.74q17.31-40.85,34.47-81.74a14.26,14.26,0,0,1,10.4-8.88c7.4-1.84,14.75-3.94,22.17-5.69a26,26,0,0,1,8.44-.78c11.25,1.13,22.47,2.55,33.7,3.91C522.08,592.63,526.48,593.28,531.27,593.94Z" transform="translate(-325.77 -323.92)"/>
    <path fill="none"  d="M452,745a1.55,1.55,0,0,1-.06.23,15.3,15.3,0,0,1-1.8,4c.17-.37.34-.7.51-1A20.16,20.16,0,0,0,452,745Z" transform="translate(-325.77 -323.92)"/></svg>