<svg id="Layer_1" data-name="Layer 1" xmlns="http://www.w3.org/2000/svg" viewBox="0 0 530.96 496.19">
    <rect fill="black" x="396.76" y="183.15" width="26.89" height="26.89" rx="6.58"/><rect class="cls-1" x="400.04" y="253.47" width="20.33" height="20.33" rx="4.98"/><rect class="cls-1" x="121.89" y="179.87" width="29.37" height="29.37" rx="7.19"/><path class="cls-1" d="M650.75,305.43H462.43a43.35,43.35,0,0,0-43.34,43.34V758.29a43.35,43.35,0,0,0,43.34,43.34H650.75a43.34,43.34,0,0,0,43.34-43.34V348.77A43.34,43.34,0,0,0,650.75,305.43ZM556.59,778.11a23.72,23.72,0,1,1,23.72-23.71A23.72,23.72,0,0,1,556.59,778.11Zm41.86-427a10.67,10.67,0,0,1-7.56,3.13H522.74a10.69,10.69,0,1,1,0-21.37h68.15a10.68,10.68,0,0,1,7.56,18.24Z" transform="translate(-282.52 -305.43)"/><circle class="cls-1" cx="274.08" cy="448.97" r="18.13"/><path class="cls-1" d="M596.2,343.59a5.82,5.82,0,0,1-5.83,5.82h-67.1a5.83,5.83,0,1,1,0-11.66h67.1A5.83,5.83,0,0,1,596.2,343.59Z" transform="translate(-282.52 -305.43)"/><rect class="cls-1" x="71.94" y="206.55" width="38.78" height="38.78" rx="9.49"/><rect class="cls-1" x="107.23" y="253.05" width="29.32" height="29.32" rx="7.17"/><rect class="cls-1" x="64.25" y="255.64" width="15.37" height="15.37" rx="3.76"/><rect class="cls-1" x="44.92" y="198.86" width="15.37" height="15.37" rx="3.76"/><rect class="cls-1" x="26.59" y="227.16" width="15.37" height="15.37" rx="3.76"/><rect class="cls-1" y="242.32" width="11.56" height="11.56" rx="2.83"/><rect class="cls-1" x="430.15" y="211.75" width="38.44" height="38.44" rx="9.41"/><rect class="cls-1" x="480.96" y="222.81" width="19.9" height="19.9" rx="4.87"/><rect class="cls-1" x="465.42" y="186.65" width="19.9" height="19.9" rx="4.87"/><rect class="cls-1" x="497.7" y="176.27" width="13.92" height="13.92" rx="3.41"/><rect class="cls-1" x="521.41" y="183.54" width="9.56" height="9.56" rx="2.34"/></svg>