<svg id="Layer_1" data-name="Layer 1" xmlns="http://www.w3.org/2000/svg"
    viewBox="0 0 777.21 469.41"><defs><style>.cls-1{fill:#000;}</style></defs><polygon class="cls-1" points="253.72 292.31 252.87 292.98 252.87 292.31 253.72 292.31"/><polygon class="cls-1" points="253.72 292.31 252.87 292.98 252.87 292.31 253.72 292.31"/><polygon class="cls-1" points="266.43 257.25 265.23 258.53 265.23 257.25 266.43 257.25"/><polygon class="cls-1" points="266.43 257.25 265.23 258.53 265.23 257.25 266.43 257.25"/><polygon class="cls-1" points="456.75 95.79 425.63 95.79 404.89 73.68 366.93 33.2 291.21 113.93 265.23 113.93 265.23 108.44 351.36 16.6 366.93 0 382.49 16.6 404.89 40.49 404.89 13.28 441.54 13.28 441.54 79.57 456.75 95.79"/><rect class="cls-1" x="440.88" y="324.92" width="0.66" height="46.27"/><path class="cls-1" d="M858.88,646.35V569.14h46.8l-7.12-7.59-39.68-42.31L826.49,484.7,792.08,448l-19.35-20.63L757,410.55l-15.79,16.83-18.76,20-30.94,33-8,8.57-24.36,26L637,538.42l-21.69,23.13-7.12,7.59h50.86V716.4h24.36V561.55H646.89l12.18-13,24.36-26,8-8.56,30.94-33L757,444.2l35.13,37.47,34.41,36.69,32.39,34.53,8.12,8.66H826.49V711.17a308.74,308.74,0,0,1-34.41,11c-23.08,6.08-48.19,10.75-69.68,14.14-24.34,3.84-44,6-50.89,6.77a1358.24,1358.24,0,0,1-234.22-18.21c-41.2-6.83-80.13-15.24-116.68-24.67V590H252.52v90.78q-10.58-3.32-20.82-6.72V583.07H206.5l9-11.56,16.19-20.76,20.82-26.7,29.15-37.37,38.94,49.94,7.38,9.46.21.27L360,587.07l7.44,9.54H627v-9.54H371.43l-8-8.19,5.09-5.43,12.78-13.62,12.36-13.18,70.86-75.56H393.7v20.56H381.34V417.12H328v52.7H275.56L272,474.33l-19.52,25-20.82,26.7-16.19,20.76-28.26,36.24-7.44,9.54h35.7v75.92c-31.58-10.92-60.64-22.26-87-33.46a868.12,868.12,0,0,0,87,50.52q7.88,4,16.19,8,10.1,4.85,20.82,9.64c21,9.36,43.69,18.49,68.09,26.92,73.54,25.4,162.17,44.37,262.63,43.57A773.21,773.21,0,0,0,722.4,759.9c25.13-4.8,48.42-10.53,69.68-16.62q13.57-3.88,26-7.94c2.88-.69,5.67-1.47,8.38-2.32a108.92,108.92,0,0,0,32.39-16c18.11-13.39,26.91-30.4,24.29-44.07C882.67,670.29,879.72,657.19,858.88,646.35Zm5.37,33.49c-.32,4.11-2.2,8-5.37,11.68v-33C865.2,668.17,864.63,674.85,864.25,679.84Z" transform="translate(-128.47 -304.3)"/><polygon class="cls-1" points="253.72 292.31 252.87 292.98 252.87 292.31 253.72 292.31"/><polygon class="cls-1" points="592.08 118.5 562.99 149.52 554.96 158.08 530.6 184.05 508.55 207.56 461.95 257.25 454.83 264.84 259.31 264.84 265.23 258.53 266.43 257.25 351.27 166.79 359.57 157.94 396.55 118.5 488.15 118.5 487.16 152.79 508.55 152.79 508.55 73.78 554.96 73.78 554.96 118.5 592.08 118.5"/><rect class="cls-1" x="350.67" y="72.92" width="34.92" height="34.91"/><rect class="cls-1" x="287.83" y="324.92" width="46.28" height="46.27"/><rect class="cls-1" x="363.75" y="324.92" width="46.28" height="46.27"/><rect class="cls-1" x="441.54" y="324.92" width="45.62" height="46.27"/><rect class="cls-1" x="440.88" y="324.92" width="0.66" height="46.27"/><path class="cls-1" d="M792.08,584.33V704.7C769,710,743.89,714.09,722.4,717.05V584.33Z" transform="translate(-128.47 -304.3)"/></svg>