<svg id="Layer_1" data-name="Layer 1" xmlns="http://www.w3.org/2000/svg"
    viewBox="0 0 401.87 362.05"><defs><style>.cls-1{fill:#000;}</style></defs><polygon class="cls-1" points="401.87 348.05 393.02 362.05 8.85 362.05 0 348.05 401.87 348.05"/><polygon class="cls-1" points="218.9 227.85 217.31 229.13 217.31 227.85 218.9 227.85"/><polygon class="cls-1" points="47.4 217.75 47.4 218.15 36.78 228.77 36.78 228.37 47.4 217.75"/><polygon class="cls-1" points="114.98 149.81 114.98 150.17 78.04 187.11 114.98 149.81"/><polygon class="cls-1" points="114.98 149.81 114.98 150.57 58.98 206.56 58.98 206.16 78.04 187.11 114.98 149.81"/><path class="cls-1" d="M740.94,698.82l-8.85-14H703.72V473.51l-14-14v225.3H682v-233l-14-14v247h-7.73V430.07l-14-14V684.82h-7.72V408.35l-34.15-34.16-7.51-7.5-.2-.2L589.19,359l-32.81,32.8-10.62,10.63-11.1,11.1-13.37,13.36v98.81L534.66,539l11.1,11.1,10.62,10.62V440.81h68.18v146H558l-1.59,1.27V585l-10.62-10.62-78.29-78.29V480.7l-69.42,69.41L386.46,561.7l-10.62,10.62-24.32,24.32h24.32v88.18H347.91l-8.85,14H556.38v-98h68.18v98Zm-144.43-272H585.64V401.65a5.44,5.44,0,0,1,10.87,0ZM469.37,544.11h13.76v13.52H469.37Zm0,20.28h13.76V577.9H469.37Zm32.94,32.25v60.3H491.09v-50.8h-50.8v50.8h-9.66v-60.3Zm-16.41,16.5v43.8H470.46v-43.8Zm-23.65,0v43.8H446.8v-43.8ZM448.49,577.9V564.39h13.76V577.9Zm13.76-20.27H448.49V544.11h13.76Zm-86.41,30.12v-.4l10.62-10.63,30.64-30.64L454,508.79v15.77l-56,56-6.28,6.28h-15Zm169.92,97.07H386.46V596.64h11.59v74.79H534.66V596.64h11.1Z" transform="translate(-339.06 -358.98)"/><line class="cls-1" x1="364.84" y1="114.72" x2="364.66" y2="114.54"/><polygon class="cls-1" points="151.5 98.62 151.5 135.98 148.05 132.52 140.54 125.01 140.34 124.81 132.83 117.3 151.5 98.62"/><polygon class="cls-1" points="114.98 149.81 114.98 150.57 36.78 228.77 36.78 228.37 47.4 217.75 78.04 187.11 114.98 149.81"/><polygon class="cls-1" points="219.02 227.76 218.9 227.85 217.31 229.13 217.31 226.06 219.02 227.76"/><polygon class="cls-1" points="114.98 149.81 114.98 150.57 37.7 227.85 37.69 227.85 47.4 218.05 58.98 206.35 78.04 187.11 114.98 149.81"/><polygon class="cls-1" points="217.44 201.91 217.31 201.79 217.31 81.83 217.44 201.91"/><polygon class="cls-1" points="219.02 227.76 218.9 227.85 217.31 227.85 217.31 226.06 219.02 227.76"/><rect class="cls-1" x="234.94" y="100.96" width="13.76" height="13.52"/><rect class="cls-1" x="234.94" y="121.24" width="13.76" height="13.52"/><rect class="cls-1" x="234.94" y="171.94" width="13.76" height="13.52"/><rect class="cls-1" x="234.94" y="192.21" width="13.76" height="13.52"/><rect class="cls-1" x="255.82" y="100.96" width="13.76" height="13.52"/><rect class="cls-1" x="255.82" y="121.24" width="13.76" height="13.52"/><rect class="cls-1" x="255.82" y="171.94" width="13.76" height="13.52"/><rect class="cls-1" x="255.82" y="192.21" width="13.76" height="13.52"/><polygon class="cls-1" points="174.21 75.92 174.21 158.68 158.42 142.9 158.42 91.7 174.21 75.92"/><polygon class="cls-1" points="217.44 201.91 217.31 201.79 217.31 81.83 217.44 201.91"/><path class="cls-1" d="M569.65,613.14v85.68h41.52V613.14ZM604.41,645h-27V622.31h27Z" transform="translate(-339.06 -358.98)"/></svg>