<svg id="Layer_1" data-name="Layer 1" xmlns="http://www.w3.org/2000/svg"
    viewBox="0 0 446.84 380.12"><defs><style>.cls-1{fill:#000;}</style></defs><path class="cls-1" d="M376.81,639.25l-3.3,21.43-12.79,9.88a2.57,2.57,0,0,1-3.35-.17l-16-15.74a2.33,2.33,0,0,1-.31-3l9.86-15.19a2.41,2.41,0,0,0,.11-2.43l-2.71-5A2.48,2.48,0,0,0,346,627.8l-20.69,1.13a2.44,2.44,0,0,1-2.51-1.75l-6.13-21.41a2.43,2.43,0,0,1,1.22-2.8l18.32-10a2.48,2.48,0,0,0,1.3-2.47l-.73-5.53a2.41,2.41,0,0,0-1.32-1.82l-16.69-8.23a2.36,2.36,0,0,1-1.24-2.78l5.88-20.76a2.57,2.57,0,0,1,2.45-1.83l19.95-.16a2.59,2.59,0,0,0,2.36-1.58l1.94-4.7a2.37,2.37,0,0,0-.21-2.21l-10.26-15.49a2.38,2.38,0,0,1,.31-3l16-16.54a2.58,2.58,0,0,1,3.18-.43l16.58,10.05a2.62,2.62,0,0,0,2.6,0l5.09-2.89a2.46,2.46,0,0,0,1.27-2.34l-1.54-18.72a2.49,2.49,0,0,1,1.84-2.57l8.9-2.55a2.47,2.47,0,0,1,3.08,1.64l1.73,20.84s6.38,7.27,22.54,7.49c-38.17,4.71-67.62,34.92-67.62,71.49C353.57,608,362.46,626.17,376.81,639.25Z" transform="translate(-316.58 -349.94)"/><path class="cls-1" d="M421.51,516.43h-.32" transform="translate(-316.58 -349.94)"/><path class="cls-1" d="M676.19,470.6v28.76a3.13,3.13,0,0,1-2.41,3l-25.12,6a3.14,3.14,0,0,0-2.34,2.39l-1.09,5.11-.44,2a3.14,3.14,0,0,0,1,3l17,15.34a3.12,3.12,0,0,1,.65,3.82l-13.75,25.2a3.13,3.13,0,0,1-3.94,1.4L603.27,549.1a90.13,90.13,0,1,0-126.54,0l-42.42,17.53a3.13,3.13,0,0,1-3.94-1.4L416.62,540a3.12,3.12,0,0,1,.65-3.82l17-15.34a3.14,3.14,0,0,0,1-3l-.44-2-1.09-5.11a3.14,3.14,0,0,0-2.34-2.39l-25.12-6a3.13,3.13,0,0,1-2.41-3V470.6a3.13,3.13,0,0,1,2.42-3l25.34-5.93A3.11,3.11,0,0,0,434,459l1-7.12a3.12,3.12,0,0,0-1-2.71L416.88,433a3.14,3.14,0,0,1-.53-3.89l14.13-23.66a3.12,3.12,0,0,1,3.55-1.41L457.94,411a3.15,3.15,0,0,0,3.36-1.11l3.93-5.16a3.14,3.14,0,0,0,.5-2.81l-7-22.86a3.16,3.16,0,0,1,1.38-3.6l24.75-14.84a3.12,3.12,0,0,1,4,.6l16.38,18.35a3.13,3.13,0,0,0,3.1,1l7.08-1.77a3.12,3.12,0,0,0,2.31-2.44l4.57-23.78a3.12,3.12,0,0,1,3.07-2.55h11.51a3.13,3.13,0,0,1,3.13,3.14,3.13,3.13,0,0,1,3.13-3.14h11.51a3.12,3.12,0,0,1,3.07,2.55l4.57,23.78a3.12,3.12,0,0,0,2.31,2.44l7.08,1.77a3.13,3.13,0,0,0,3.1-1l16.38-18.35a3.12,3.12,0,0,1,4-.6l24.75,14.84a3.16,3.16,0,0,1,1.38,3.6l-7,22.86a3.14,3.14,0,0,0,.5,2.81l3.93,5.16a3.15,3.15,0,0,0,3.36,1.11L646,404.08a3.12,3.12,0,0,1,3.55,1.41l14.13,23.66a3.14,3.14,0,0,1-.53,3.89L646,449.19a3.12,3.12,0,0,0-1,2.71l1,7.12a3.11,3.11,0,0,0,2.38,2.61l25.34,5.93A3.13,3.13,0,0,1,676.19,470.6Z" transform="translate(-316.58 -349.94)"/><path class="cls-1" d="M688.19,625.05c-5.32-16.65-32.41-18.85-39.91-19.14a4.81,4.81,0,0,1-3.31-1.49l-33.1-34.59c-11-10.46-71.87-10.26-71.87-10.26s-60.82-.2-71.87,10.26L435,604.42a4.81,4.81,0,0,1-3.31,1.49c-7.5.29-34.59,2.49-39.91,19.14,0,0-14.54,44-3.1,95.7,0,0,.38,9.3,12.2,9.3h23.64s8.13.58,8.32-7.56l107.13.2,107.13-.2c.19,8.14,8.32,7.56,8.32,7.56h23.64c11.82,0,12.2-9.3,12.2-9.3C702.73,669,688.19,625.05,688.19,625.05ZM450.52,602.14q13.88-14,27.76-28.09a9.11,9.11,0,0,1,5.44-2.64q10.39-1.14,21.62-1.85c12.19-.76,23.78-1,34.66-.89,10.88-.12,22.47.13,34.66.89q11.22.71,21.62,1.85a9.11,9.11,0,0,1,5.44,2.64l27.76,28.09a1.28,1.28,0,0,1-.91,2.18h-8.76a11.51,11.51,0,0,0-5.35,1.26c-17.54,9.25-74.46,7.65-74.46,7.65s-56.92,1.6-74.46-7.65a11.51,11.51,0,0,0-5.35-1.26h-8.76A1.28,1.28,0,0,1,450.52,602.14ZM405,620.2s21.89-4.65,34.48,3.29c0,0,27.32,26.36,36.43,27.13C475.89,650.62,400.13,663.41,405,620.2Zm232.5,59.29L630.56,705a4.34,4.34,0,0,1-4.18,3.2H453.62a4.34,4.34,0,0,1-4.18-3.2l-6.91-25.47a3.84,3.84,0,0,1,3.71-4.85H633.76A3.85,3.85,0,0,1,637.48,679.49Zm-33.37-28.87c9.11-.77,36.43-27.13,36.43-27.13,12.59-7.94,34.48-3.29,34.48-3.29C679.87,663.41,604.11,650.62,604.11,650.62Z" transform="translate(-316.58 -349.94)"/><path class="cls-1" d="M763.33,605.77l-6.13,21.41a2.44,2.44,0,0,1-2.51,1.75L734,627.8a2.48,2.48,0,0,0-2.32,1.26l-2.71,5a2.41,2.41,0,0,0,.11,2.43l9.86,15.19a2.33,2.33,0,0,1-.31,3l-16,15.74a2.57,2.57,0,0,1-3.35.17l-12.79-9.88-3.3-21.43c14.35-13.08,23.24-31.25,23.24-51.34,0-36.57-29.45-66.78-67.62-71.49,16.16-.22,22.54-7.49,22.54-7.49l1.73-20.84a2.47,2.47,0,0,1,3.08-1.64l8.9,2.55a2.49,2.49,0,0,1,1.84,2.57l-1.54,18.72a2.46,2.46,0,0,0,1.27,2.34l5.09,2.89a2.62,2.62,0,0,0,2.6,0l16.58-10.05a2.58,2.58,0,0,1,3.18.43l16,16.54a2.38,2.38,0,0,1,.31,3L730.1,540.88a2.37,2.37,0,0,0-.21,2.21l1.94,4.7a2.59,2.59,0,0,0,2.36,1.58l19.95.16a2.57,2.57,0,0,1,2.45,1.83l5.88,20.76a2.36,2.36,0,0,1-1.24,2.78l-16.69,8.23a2.41,2.41,0,0,0-1.32,1.82l-.73,5.53a2.48,2.48,0,0,0,1.3,2.47l18.32,10A2.43,2.43,0,0,1,763.33,605.77Z" transform="translate(-316.58 -349.94)"/><path class="cls-1" d="M658.49,516.43h.32" transform="translate(-316.58 -349.94)"/><path class="cls-1" d="M526.39,479.1l-50.5,49.08s-14.15-11.63-13.73-31.26l41.75-41.59S505.52,406.77,542,415L526,431.13l5.6,20.33,18.6,4,16.53-16.44S578.88,473,526.39,479.1Z" transform="translate(-316.58 -349.94)"/><path class="cls-1" d="M604.11,441.9C564.83,490.72,546.24,491,546.24,491a30.49,30.49,0,1,0,30.48,30.49c.24-14.69,41.12-48.86,41.12-48.86C616.3,451.72,604.11,441.9,604.11,441.9ZM560.79,529l-7,7a7.06,7.06,0,0,1-6.8,1.81l-9.57-2.57a7,7,0,0,1-5-5l-2.55-9.57a7,7,0,0,1,1.82-6.79l7-7a7,7,0,0,1,6.79-1.81l9.58,2.57a7.06,7.06,0,0,1,5,5l2.55,9.56A7,7,0,0,1,560.79,529Z" transform="translate(-316.58 -349.94)"/></svg>