<svg id="Layer_1" data-name="Layer 1" xmlns="http://www.w3.org/2000/svg"
    viewBox="0 0 440.51 236.53"><defs><style>.cls-1{fill:#000;}</style></defs><path class="cls-1" d="M535.47,583.13l13.78,12.6H456.58a38.53,38.53,0,0,1-74.3,6.92h13.84a25.94,25.94,0,1,0,.37-26.68h-14a38.54,38.54,0,0,1,72.37.8,37.58,37.58,0,0,1,1.65,6.36h59l-5.24-5.32h-40l-6.88.07c-5.56-19-23.12-34-43.93-34a45.77,45.77,0,0,0-43.92,32.89H342.21c-6.73-8.52,0-26.77,0-26.77,5.4,2.76,18,1.08,18,1.08,20.88-3.12,7.8-22.77,7.8-22.77a13,13,0,0,1-1.64,9.45c1.12-11.21-14.4-19.52-14.4-19.52H524.65l-8.17-9.51H394.37c31.05-27.43,89.3-36.1,89.3-36.1l-5.5-6.35c-55.24,7.43-94,38.83-94,38.83l-43.92,3.12c2.87,27.61-2.64,35.53-2.64,35.53-6.27,11.77-5.15,24.5-3.5,32.21a47.94,47.94,0,0,0,2.05,7.16h44.36v0H400v0h6.41a13.68,13.68,0,0,1,6.28-6.36,13.54,13.54,0,0,1,6-1.4,13.71,13.71,0,0,1,4.64.81v6.87h8.8a1.6,1.6,0,0,1,1.14,2.73,1.64,1.64,0,0,1-1.14.47h-8.8v5.8h8.8a1.6,1.6,0,0,1,1.14,2.73,1.64,1.64,0,0,1-1.14.47h-8.8v6.58a13.6,13.6,0,0,1-16.5-6.1H400v-.28H329.72c-18.13-20.29-6-51-6-51,8.4-23.05,0-48.73,0-48.73l55.45-3.12a195.93,195.93,0,0,1,88.95-37.94l-28.3-32.95,34.34,32.08,12.35,11.54,70.62,66H478.88Z" transform="translate(-319.75 -421.74)"/><rect class="cls-1" x="367.17" y="161.15" width="52.57" height="0.28"/><path class="cls-1" d="M374.06,595.73H330l-.24-.28" transform="translate(-319.75 -421.74)"/><path class="cls-1" d="M400,583.13v0H380.55v0Z" transform="translate(-319.75 -421.74)"/><path class="cls-1" d="M400,583.13v0H380.55v0Z" transform="translate(-319.75 -421.74)"/><path class="cls-1" d="M400,583.13v0h-6.56v0Z" transform="translate(-319.75 -421.74)"/><path class="cls-1" d="M400,595.45v.28h-6.64l-.07-.28Z" transform="translate(-319.75 -421.74)"/><path class="cls-1" d="M400,583.13v0H380.55v0Z" transform="translate(-319.75 -421.74)"/><path class="cls-1" d="M400,583.13v0H380.55v0Z" transform="translate(-319.75 -421.74)"/><path class="cls-1" d="M760.25,559.36l-8.58,36.09-38.78.17-25.29.11h-6.68a12.44,12.44,0,0,1-4.76,4.68,14,14,0,0,1-6.76,1.68,13.34,13.34,0,0,1-4-.6v-6.9h-9.75a1.59,1.59,0,0,1-1.12-2.72,1.55,1.55,0,0,1,1.12-.46h9.75V586h-9.75a1.59,1.59,0,0,1-1.12-2.72,1.55,1.55,0,0,1,1.12-.46h9.75v-6.59a13,13,0,0,1,4-.61,13.19,13.19,0,0,1,7,2,13.36,13.36,0,0,1,4.91,5.36h5.65v.28h52.57v-.28h1.92L743,576l3.19-13.72C722.69,520,630.75,518.08,630.75,518.08L540,469.34a164.23,164.23,0,0,0-40.63-4.61L486.5,452.6c35-2.44,59.75,4.5,59.75,4.5l88.81,49C742.85,511.35,760.25,559.36,760.25,559.36Z" transform="translate(-319.75 -421.74)"/><line class="cls-1" x1="195.77" y1="161.43" x2="195.73" y2="161.39"/><path class="cls-1" d="M727.8,564.48c.65,5.2,6.65,11.52,6.65,11.52H711.21a45.78,45.78,0,0,0-86.71-2h-9.26l-50.91-48h65.22c87.86,4.08,107.78,34.88,107.78,34.88H722.2Z" transform="translate(-319.75 -421.74)"/><polygon class="cls-1" points="295.49 152.27 294.44 152.27 244.5 104.26 244.58 104.26 295.49 152.27"/><line class="cls-1" x1="304.8" y1="152.27" x2="304.75" y2="152.27"/><polygon class="cls-1" points="279.2 147.71 278.59 147.71 270.68 140.24 279.2 147.71"/><polygon class="cls-1" points="295.49 152.27 294.44 152.27 244.5 104.26 244.58 104.26 295.49 152.27"/><path class="cls-1" d="M613,515.44l-64.76-4.64-42.13-39.72s19.27-.3,34.39,6.18Z" transform="translate(-319.75 -421.74)"/><polygon class="cls-1" points="252.4 123.01 184.49 123.01 174.89 114.82 243.72 114.82 252.4 123.01"/><polygon class="cls-1" points="267.39 137.14 200.58 137.14 190.49 128.27 256.47 126.85 267.39 137.14"/><polygon class="cls-1" points="278.59 147.71 213.64 147.71 206.82 141.71 270.68 140.24 278.59 147.71"/><polygon class="cls-1" points="279.2 147.71 278.59 147.71 270.68 140.24 279.2 147.71"/><polygon class="cls-1" points="288.26 156.83 223.86 156.83 217.57 151.07 282.15 151.07 288.26 156.83"/><path class="cls-1" d="M705.11,602.65a38.53,38.53,0,0,1-74.3-6.92H579.86l43.44,62.53-61.63-62.53-12.42-12.6h81.62a38.53,38.53,0,0,1,74-7.16h-14a25.92,25.92,0,1,0,.37,26.68Z" transform="translate(-319.75 -421.74)"/></svg>